<svg width="168" height="175" viewBox="0 0 168 175" fill="none" xmlns="http://www.w3.org/2000/svg">
<g id="tabler:shield">
<path id="Vector" d="M84 21.875C100.351 36.9438 121.691 44.7895 143.5 43.75C146.675 55.0012 147.647 66.8024 146.357 78.4524C145.067 90.1024 141.542 101.363 135.992 111.566C130.441 121.769 122.979 130.706 114.047 137.845C105.116 144.984 94.8975 150.181 84 153.125C73.1025 150.181 62.8844 144.984 53.9528 137.845C45.0213 130.706 37.5586 121.769 32.0082 111.566C26.4578 101.363 22.9329 90.1024 21.6431 78.4524C20.3533 66.8024 21.3249 55.0012 24.5 43.75C46.3087 44.7895 67.6492 36.9438 84 21.875Z" stroke="black" stroke-width="10" stroke-linecap="round" stroke-linejoin="round"/>
</g>
</svg>
