<svg width="47" height="47" viewBox="0 0 47 47" fill="none" xmlns="http://www.w3.org/2000/svg">
<path id="Vector" d="M37.6603 46.9996C35.6121 46.9996 32.7348 46.2589 28.4263 43.8522C23.187 40.9147 19.1346 38.2027 13.9236 33.0064C8.89948 27.9864 6.45457 24.7362 3.03273 18.5107C-0.832973 11.4816 -0.173999 7.79713 0.562625 6.2224C1.43986 4.34028 2.73472 3.21458 4.40839 2.09727C5.35902 1.47455 6.36503 0.940735 7.41365 0.502604C7.51858 0.457492 7.61617 0.414478 7.70326 0.375661C8.22267 0.141707 9.00966 -0.211846 10.0065 0.165837C10.6718 0.415527 11.2657 0.926449 12.1954 1.84443C14.102 3.72445 16.7075 7.91149 17.6687 9.96776C18.314 11.3536 18.7411 12.2685 18.7421 13.2945C18.7421 14.4958 18.1377 15.4221 17.4042 16.4219C17.2668 16.6097 17.1304 16.7891 16.9981 16.9633C16.1996 18.0124 16.0244 18.3156 16.1398 18.857C16.3738 19.9449 18.1188 23.1835 20.9866 26.0445C23.8544 28.9054 27.0003 30.54 28.0926 30.7729C28.6572 30.8935 28.9667 30.711 30.0496 29.8843C30.2049 29.7657 30.3644 29.643 30.5313 29.5202C31.6498 28.6883 32.5334 28.0997 33.7065 28.0997H33.7128C34.7338 28.0997 35.6079 28.5424 37.0559 29.2726C38.9447 30.2252 43.2585 32.7966 45.1504 34.705C46.0707 35.6324 46.5838 36.2241 46.8346 36.8882C47.2123 37.888 46.8566 38.6717 46.6247 39.1962C46.5859 39.2833 46.5429 39.3788 46.4977 39.4847C46.056 40.5313 45.519 41.535 44.8933 42.4831C43.7779 44.1512 42.6478 45.4427 40.7611 46.3208C39.7923 46.779 38.732 47.0111 37.6603 46.9996Z" fill="white"/>
</svg>
