<svg width="41" height="41" viewBox="0 0 41 41" fill="none" xmlns="http://www.w3.org/2000/svg">
<path id="Vector" d="M22.6074 0.00252222C24.1033 -0.00321804 25.5992 0.0118164 27.0946 0.0476208L27.4923 0.0619703C27.9515 0.0783697 28.4045 0.098869 28.9518 0.123468C31.1329 0.225965 32.6212 0.570353 33.9269 1.07669C35.2799 1.59737 36.4196 2.30254 37.5594 3.4423C38.6015 4.46646 39.408 5.70532 39.9229 7.07273C40.4292 8.37854 40.7736 9.86884 40.8761 12.05C40.9007 12.5952 40.9212 13.0503 40.9376 13.5095L40.9499 13.9072C40.9863 15.402 41.002 16.8972 40.997 18.3924L40.9991 19.9217V22.6071C41.0041 24.103 40.9884 25.5989 40.9519 27.0944L40.9396 27.4921C40.9232 27.9513 40.9027 28.4043 40.8781 28.9516C40.7756 31.1328 40.4272 32.621 39.9229 33.9268C39.4097 35.2957 38.603 36.5355 37.5594 37.5593C36.5343 38.6013 35.2949 39.4078 33.9269 39.9229C32.6212 40.4292 31.1329 40.7736 28.9518 40.8761C28.4045 40.9007 27.9515 40.9212 27.4923 40.9376L27.0946 40.9499C25.5992 40.9863 24.1033 41.002 22.6074 40.997L21.0782 40.9991H18.3949C16.899 41.0041 15.4031 40.9884 13.9077 40.9519L13.51 40.9396C13.0234 40.922 12.5368 40.9015 12.0505 40.8781C9.86938 40.7756 8.38115 40.4271 7.07332 39.9229C5.70539 39.409 4.46634 38.6023 3.44296 37.5593C2.39965 36.5349 1.59236 35.2953 1.07738 33.9268C0.571054 32.621 0.226671 31.1328 0.124176 28.9516C0.101347 28.4652 0.0808474 27.9787 0.0626796 27.4921L0.0524304 27.0944C0.0146376 25.5989 -0.00244665 24.103 0.00118279 22.6071V18.3924C-0.0045384 16.8972 0.0104958 15.402 0.0462806 13.9072L0.0606298 13.5095C0.077029 13.0503 0.0975279 12.5952 0.122127 12.05C0.224621 9.86679 0.569003 8.38059 1.07533 7.07273C1.59062 5.70465 2.39949 4.46613 3.44501 3.44436C4.46769 2.40043 5.70596 1.59239 7.07332 1.07669C8.38115 0.570353 9.86733 0.225965 12.0505 0.123468L13.51 0.0619703L13.9077 0.0517209C15.4024 0.0139464 16.8976 -0.00313814 18.3928 0.000472443L22.6074 0.00252222ZM20.5001 10.2522C19.1421 10.233 17.7938 10.4839 16.5335 10.9903C15.2733 11.4967 14.1263 12.2486 13.1591 13.2021C12.192 14.1557 11.424 15.292 10.8998 16.545C10.3756 17.7979 10.1057 19.1426 10.1057 20.5008C10.1057 21.859 10.3756 23.2037 10.8998 24.4566C11.424 25.7096 12.192 26.8459 13.1591 27.7995C14.1263 28.753 15.2733 29.5049 16.5335 30.0113C17.7938 30.5177 19.1421 30.7686 20.5001 30.7494C23.2185 30.7494 25.8255 29.6696 27.7476 27.7474C29.6698 25.8252 30.7496 23.2182 30.7496 20.4998C30.7496 17.7814 29.6698 15.1744 27.7476 13.2522C25.8255 11.33 23.2185 10.2522 20.5001 10.2522ZM20.5001 14.352C21.317 14.337 22.1287 14.4849 22.8878 14.787C23.6469 15.0892 24.3382 15.5396 24.9213 16.112C25.5044 16.6843 25.9676 17.3671 26.2838 18.1205C26.6 18.8739 26.763 19.6827 26.7631 20.4998C26.7632 21.3168 26.6006 22.1257 26.2846 22.8792C25.9686 23.6326 25.5056 24.3156 24.9228 24.8881C24.3399 25.4607 23.6487 25.9113 22.8897 26.2138C22.1307 26.5162 21.3191 26.6643 20.5022 26.6496C18.8712 26.6496 17.307 26.0016 16.1537 24.8483C15.0004 23.695 14.3525 22.1308 14.3525 20.4998C14.3525 18.8687 15.0004 17.3045 16.1537 16.1512C17.307 14.9979 18.8712 14.35 20.5022 14.35L20.5001 14.352ZM31.2621 7.17728C30.6008 7.20375 29.9753 7.48508 29.5168 7.96234C29.0583 8.43961 28.8022 9.07579 28.8022 9.73764C28.8022 10.3995 29.0583 11.0357 29.5168 11.5129C29.9753 11.9902 30.6008 12.2715 31.2621 12.298C31.9417 12.298 32.5934 12.028 33.074 11.5475C33.5545 11.0669 33.8244 10.4152 33.8244 9.73559C33.8244 9.056 33.5545 8.40424 33.074 7.92369C32.5934 7.44315 31.9417 7.17318 31.2621 7.17318V7.17728Z" fill="white"/>
</svg>
