<svg width="201" height="142" viewBox="0 0 201 142" fill="none" xmlns="http://www.w3.org/2000/svg">
<g id="fluent:data-bar-vertical-ascending-16-regular">
<path id="Vector" d="M138.188 26.625C138.188 21.9174 140.835 17.4026 145.546 14.0739C150.258 10.7451 156.649 8.875 163.312 8.875C169.976 8.875 176.367 10.7451 181.079 14.0739C185.79 17.4026 188.438 21.9174 188.438 26.625V115.375C188.438 120.083 185.79 124.597 181.079 127.926C176.367 131.255 169.976 133.125 163.312 133.125C156.649 133.125 150.258 131.255 145.546 127.926C140.835 124.597 138.188 120.083 138.188 115.375V26.625ZM163.312 124.25C166.644 124.25 169.84 123.315 172.196 121.651C174.551 119.986 175.875 117.729 175.875 115.375V26.625C175.875 24.2712 174.551 22.0138 172.196 20.3494C169.84 18.685 166.644 17.75 163.312 17.75C159.981 17.75 156.785 18.685 154.429 20.3494C152.074 22.0138 150.75 24.2712 150.75 26.625V115.375C150.75 117.729 152.074 119.986 154.429 121.651C156.785 123.315 159.981 124.25 163.312 124.25ZM12.5625 79.875C12.5625 75.1674 15.2096 70.6526 19.9214 67.3239C24.6333 63.9951 31.0239 62.125 37.6875 62.125C44.3511 62.125 50.7417 63.9951 55.4536 67.3239C60.1654 70.6526 62.8125 75.1674 62.8125 79.875V115.375C62.8125 120.083 60.1654 124.597 55.4536 127.926C50.7417 131.255 44.3511 133.125 37.6875 133.125C31.0239 133.125 24.6333 131.255 19.9214 127.926C15.2096 124.597 12.5625 120.083 12.5625 115.375V79.875ZM37.6875 124.25C41.0193 124.25 44.2146 123.315 46.5705 121.651C48.9265 119.986 50.25 117.729 50.25 115.375V79.875C50.25 77.5212 48.9265 75.2638 46.5705 73.5994C44.2146 71.935 41.0193 71 37.6875 71C34.3557 71 31.1604 71.935 28.8045 73.5994C26.4485 75.2638 25.125 77.5212 25.125 79.875V115.375C25.125 117.729 26.4485 119.986 28.8045 121.651C31.1604 123.315 34.3557 124.25 37.6875 124.25ZM100.5 44.375C93.8364 44.375 87.4458 46.2451 82.7339 49.5739C78.0221 52.9026 75.375 57.4174 75.375 62.125V115.375C75.375 120.083 78.0221 124.597 82.7339 127.926C87.4458 131.255 93.8364 133.125 100.5 133.125C107.164 133.125 113.554 131.255 118.266 127.926C122.978 124.597 125.625 120.083 125.625 115.375V62.125C125.625 57.4174 122.978 52.9026 118.266 49.5739C113.554 46.2451 107.164 44.375 100.5 44.375ZM100.5 53.25C103.832 53.25 107.027 54.185 109.383 55.8494C111.739 57.5138 113.062 59.7712 113.062 62.125V115.375C113.062 117.729 111.739 119.986 109.383 121.651C107.027 123.315 103.832 124.25 100.5 124.25C97.1682 124.25 93.9729 123.315 91.617 121.651C89.261 119.986 87.9375 117.729 87.9375 115.375V62.125C87.9375 59.7712 89.261 57.5138 91.617 55.8494C93.9729 54.185 97.1682 53.25 100.5 53.25Z" fill="white"/>
</g>
</svg>
