<svg width="183" height="180" viewBox="0 0 183 180" fill="none" xmlns="http://www.w3.org/2000/svg">
<g id="healthicons:magnifying-glass">
<g id="Group">
<path id="Vector" d="M71.4767 48.06C64.843 48.3113 58.8459 50.64 55.6396 53.7975C55.2854 54.1457 54.8649 54.4218 54.4022 54.6102C53.9395 54.7985 53.4436 54.8953 52.9428 54.8952C52.4421 54.895 51.9462 54.7978 51.4837 54.6091C51.0211 54.4205 50.6008 54.1441 50.2468 53.7957C49.8929 53.4472 49.6121 53.0337 49.4207 52.5785C49.2292 52.1234 49.1307 51.6356 49.1309 51.1431C49.1311 50.6505 49.2299 50.1628 49.4217 49.7078C49.6135 49.2528 49.8945 48.8394 50.2488 48.4913C55.1936 43.6275 63.2456 40.8675 71.1794 40.5638C79.1666 40.26 87.8857 42.4088 93.9934 48.4163C94.7082 49.1199 95.1097 50.0741 95.1093 51.0689C95.1089 52.0636 94.7068 53.0175 93.9915 53.7207C93.2761 54.4238 92.306 54.8186 91.2947 54.8183C90.2833 54.8179 89.3136 54.4224 88.5987 53.7188C84.4431 49.6275 78.0609 47.805 71.4767 48.0563V48.06Z" fill="white"/>
<path id="Vector_2" fill-rule="evenodd" clip-rule="evenodd" d="M110.319 102.69C117.878 93.9032 122.018 82.7606 122 71.25C122 44.325 99.8112 22.5 72.4375 22.5C45.0638 22.5 22.875 44.325 22.875 71.25C22.875 98.175 45.0638 120 72.4375 120C84.6184 120 95.77 115.68 104.402 108.51L102.938 116.79L131.585 144.968L147.384 129.427L118.736 101.25L110.319 102.69ZM72.4375 108.75C93.4939 108.75 110.562 91.9612 110.562 71.25C110.562 50.5388 93.4939 33.75 72.4375 33.75C51.3811 33.75 34.3125 50.5388 34.3125 71.25C34.3125 91.9612 51.3811 108.75 72.4375 108.75Z" fill="white"/>
<path id="Vector_3" d="M136.976 150.27L152.775 134.73L157.944 139.815C160.853 142.676 160.853 147.315 157.944 150.172L152.675 155.355C149.766 158.216 145.05 158.216 142.145 155.355L136.976 150.27Z" fill="white"/>
</g>
</g>
</svg>
